<svg id="Layer_1" data-name="Layer 1" xmlns="http://www.w3.org/2000/svg" viewBox="0 0 350 350"><title>dribbb</title><path d="M200,25A175,175,0,1,0,375,200,175,175,0,0,0,200,25Zm114.63,85.17a144.92,144.92,0,0,1,31.2,88.52,280.89,280.89,0,0,0-100.18-6.27c-3.94-9-8-18.09-12.4-27A250,250,0,0,0,314.63,110.17Zm-20.13-21a215.21,215.21,0,0,1-74.81,50.75,666,666,0,0,0-54-81.52A144.08,144.08,0,0,1,294.5,89.17ZM136.85,68.75A656.37,656.37,0,0,1,192,149.54,567.2,567.2,0,0,1,57.81,168.35,145.86,145.86,0,0,1,136.85,68.75ZM54.17,197.67a576.43,576.43,0,0,0,151.66-22q5.68,11.22,10.65,22.6A242.18,242.18,0,0,0,87.71,292.9,145.81,145.81,0,0,1,54.17,200ZM108.56,313.6c34.71-47.25,72.92-76.41,119-87.5a543.52,543.52,0,0,1,28.15,109.23,145.82,145.82,0,0,1-147-21.73Zm174.27,6.28a568.6,568.6,0,0,0-26.1-99.32A261,261,0,0,1,342.92,228,145.85,145.85,0,0,1,283,319.73Z" transform="translate(-25 -25)"/></svg>