<?xml version="1.0" encoding="utf-8"?>
<!-- Generator: Adobe Illustrator 23.0.0, SVG Export Plug-In . SVG Version: 6.00 Build 0)  -->
<svg version="1.1" id="Layer_1" xmlns="http://www.w3.org/2000/svg" xmlns:xlink="http://www.w3.org/1999/xlink" x="0px" y="0px"
	 viewBox="0 0 242 147" style="enable-background:new 0 0 242 147;" xml:space="preserve">
<title>hamburger</title>
<path d="M3.5,0H217c1.6,0,3,1.5,3,3.3v22.5c0,1.8-1.3,3.3-3,3.3H3.5c-1.6,0-3-1.5-3-3.3V3.3C0.5,1.5,1.8,0,3.5,0z"/>
<path d="M3.5,118H217c1.6,0,3,1.5,3,3.3v22.5c0,1.8-1.3,3.3-3,3.3H3.5c-1.6,0-3-1.5-3-3.3v-22.5C0.5,119.5,1.8,118,3.5,118z"/>
</svg>
