<svg id="Layer_1" data-name="Layer 1" xmlns="http://www.w3.org/2000/svg" viewBox="0 0 362 362"><defs><style>.cls-1{fill-rule:evenodd;}</style></defs><title>insta</title><g id="Icons"><g id="Black"><path id="Instagram" class="cls-1" d="M200,19c-49.16,0-55.32.21-74.62,1.09S93,24,81.44,28.5a88.7,88.7,0,0,0-32,20.88A88.72,88.72,0,0,0,28.5,81.44C24,93,21,106.11,20.09,125.38S19,150.84,19,200s.21,55.32,1.09,74.62S24,307.05,28.5,318.56a88.7,88.7,0,0,0,20.88,32.05,88.88,88.88,0,0,0,32.06,20.9C93,376,106.11,379,125.38,379.91S150.84,381,200,381s55.32-.21,74.62-1.09,32.43-3.94,43.94-8.41a92.71,92.71,0,0,0,52.95-52.94c4.46-11.51,7.52-24.67,8.4-43.94S381,249.16,381,200s-.21-55.32-1.09-74.62S376,93,371.5,81.44a88.7,88.7,0,0,0-20.88-32A88.72,88.72,0,0,0,318.56,28.5C307.05,24,293.89,21,274.62,20.09S249.16,19,200,19Zm0,32.61c48.33,0,54.05.19,73.14,1.06,17.65.8,27.22,3.75,33.61,6.23a56.15,56.15,0,0,1,20.82,13.54A56.25,56.25,0,0,1,341.1,93.26c2.49,6.37,5.43,15.95,6.23,33.6.87,19.08,1.06,24.81,1.06,73.14s-.19,54.05-1.06,73.14c-.8,17.65-3.75,27.22-6.23,33.61a59.86,59.86,0,0,1-34.36,34.35c-6.37,2.49-15.95,5.43-33.6,6.23-19.08.87-24.81,1.06-73.14,1.06s-54.06-.19-73.14-1.06c-17.65-.8-27.22-3.75-33.61-6.23A59.86,59.86,0,0,1,58.9,306.74c-2.49-6.37-5.43-15.95-6.23-33.6-.87-19.08-1.06-24.81-1.06-73.14s.19-54.05,1.06-73.14c.8-17.65,3.75-27.22,6.23-33.61A56.15,56.15,0,0,1,72.44,72.43,56.25,56.25,0,0,1,93.26,58.9c6.37-2.49,15.95-5.43,33.6-6.23C145.94,51.8,151.67,51.61,200,51.61Zm0,55.45A92.94,92.94,0,1,0,292.94,200,92.93,92.93,0,0,0,200,107.06Zm0,153.27A60.33,60.33,0,1,1,260.33,200,60.33,60.33,0,0,1,200,260.33ZM318.34,103.38a21.72,21.72,0,1,1-21.72-21.72A21.72,21.72,0,0,1,318.34,103.38Z" transform="translate(-19 -19)"/></g></g></svg>