<svg id="Layer_1" data-name="Layer 1" xmlns="http://www.w3.org/2000/svg" viewBox="0 0 366 298.54"><title>twitt</title><path d="M39.88,51.9c45.75,45.75,91.5,91.5,148.68,80.06A68.63,68.63,0,0,1,268.63,51.9a68.66,68.66,0,0,1,45.75,22.87A91.51,91.51,0,0,0,371.56,51.9a91.52,91.52,0,0,1-34.31,45.75A91.55,91.55,0,0,0,383,86.21,91.52,91.52,0,0,1,337.25,132c6.32,113.52-80.59,210.68-194.12,217q-5.87.33-11.75.32A206,206,0,0,1,17,315a137.3,137.3,0,0,0,91.5-34.31A91.54,91.54,0,0,1,51.31,234.9a91.71,91.71,0,0,0,34.32-5.72A91.51,91.51,0,0,1,17,143.4a91.6,91.6,0,0,0,34.31,11.43A91.48,91.48,0,0,1,39.88,51.9" transform="translate(-17 -50.73)"/></svg>